<svg width="603" height="754" viewBox="0 0 603 754" fill="none" xmlns="http://www.w3.org/2000/svg">
    <path fill-rule="evenodd" clip-rule="evenodd" d="M213.761 1110.43C211.292 970.104 158.221 674.296 150.597 598.109C142.975 521.922 170.09 496.12 196.089 508.69C222.088 521.264 229.866 697.046 229.866 697.046C229.866 697.046 231.657 731.45 238.442 770.627C262.973 912.256 245.755 1112.45 245.755 1112.45C245.755 1112.45 241 1125.49 226.609 1123.75C212.22 1122.01 213.761 1110.43 213.761 1110.43Z" fill="#FFC999"/>
    <path fill-rule="evenodd" clip-rule="evenodd" d="M61.5734 1104.31C64.0423 963.978 117.113 668.17 124.735 591.983C132.36 515.797 105.242 489.994 79.2458 502.564C53.2468 515.138 45.4662 690.92 45.4662 690.92C45.4662 690.92 43.6777 725.324 36.8922 764.501C12.3617 906.133 29.5796 1106.32 29.5796 1106.32C29.5796 1106.32 34.3346 1119.36 48.7258 1117.63C63.1117 1115.89 61.5734 1104.31 61.5734 1104.31Z" fill="#FFC999"/>
    <path fill-rule="evenodd" clip-rule="evenodd" d="M77.3134 472.699L79.0454 462.197C79.0454 462.197 125.828 462.237 181.653 462.581C182.035 467.939 183.568 474.45 183.568 474.45C183.568 474.45 143.232 487.978 77.3134 472.699Z" fill="#002AB2"/>
    <path fill-rule="evenodd" clip-rule="evenodd" d="M190.746 397.61L186.817 407.649C186.817 407.649 185.738 457.248 185.738 461.178C132.135 469.854 77.8534 460.497 77.8534 460.497L78.117 442.139L73.752 385.824L190.746 397.61Z" fill="white"/>
    <path d="M189.933 396.856C190.109 396.407 190.615 396.186 191.064 396.361C191.463 396.517 191.682 396.935 191.603 397.341L191.559 397.492L187.684 407.389L186.121 460.261C186.107 460.943 186.1 461.422 186.1 461.686C186.1 462.106 185.8 462.467 185.387 462.544C154.466 468.281 122.825 467.964 93.7192 463.983C89.5683 463.416 85.8002 462.811 82.4597 462.203L81.3621 462C80.3094 461.803 79.3654 461.617 78.5346 461.446L76.894 461.095C76.5319 461.011 76.2683 460.71 76.2238 460.353L76.2185 460.196L77.2459 441.652C77.2725 441.171 77.6843 440.802 78.1655 440.829C78.5933 440.853 78.932 441.181 78.9833 441.591L78.9886 441.749L78.0008 459.55L78.4081 459.637C79.0284 459.767 79.7216 459.908 80.4854 460.056L81.6839 460.285C85.2617 460.956 89.3729 461.627 93.9557 462.254C122.262 466.125 152.987 466.512 183.064 461.191L184.361 460.954L184.503 455.122L185.22 430.637L185.945 407.186L186.004 406.896L189.933 396.856Z" fill="black"/>
    <path fill-rule="evenodd" clip-rule="evenodd" d="M244.101 212.563C244.101 212.563 270.504 208.733 277.48 236.641C303.062 245.944 296.086 273.85 296.086 273.85C296.086 273.85 308.933 295.774 283.41 307.005C281.366 329.468 255.844 325.382 255.844 325.382C255.844 325.382 249.717 342.74 230.318 335.594C209.389 351.874 184.452 331.993 184.452 331.993C184.452 331.993 161.196 341.296 151.896 331.993C130.964 338.97 107.706 313.387 107.706 313.387C107.706 313.387 94.6404 316.706 85.3376 295.774C61.0384 299.545 34.4908 268.576 56.7488 239.618C42.1477 216.505 58.79 202.862 58.79 202.862C58.79 202.862 54.1965 149.769 90.9532 142.623C109.839 114.034 150.681 137.008 150.681 137.008C150.681 137.008 177.736 131.392 187.437 154.876C217.669 159.527 216.252 176.145 218.579 190.1C245.632 191.631 244.101 212.563 244.101 212.563Z" fill="black"/>
    <path fill-rule="evenodd" clip-rule="evenodd" d="M160.211 186.638C139.01 190.358 132.569 174.318 132.569 174.318C132.569 174.318 123.823 151.727 121.583 165.596C120.391 172.968 108.996 163.186 103.757 171.045C100.231 176.332 109.047 183.148 97.59 197.246C90.9524 205.413 117.132 211.933 100.981 226.988C100.981 226.988 112.465 245.365 92.7382 251.36L88.3759 272.757L133.838 272.687L132.375 248.047C163.006 248.047 164.501 205.946 160.211 186.638Z" fill="#FFC999"/>
    <path d="M121.13 209.048C121.661 208.517 122.522 208.517 123.052 209.048L123.33 209.303C123.457 209.413 123.619 209.547 123.813 209.701C124.477 210.226 125.258 210.754 126.145 211.247C129.153 212.92 132.586 213.786 136.365 213.42C137.112 213.347 137.777 213.894 137.849 214.642C137.922 215.389 137.374 216.053 136.627 216.126C132.255 216.55 128.285 215.549 124.824 213.623C123.068 212.647 121.82 211.661 121.13 210.971C120.599 210.44 120.599 209.579 121.13 209.048Z" fill="#F5222D"/>
    <path d="M137.856 187.796C138.393 187.835 138.811 188.259 138.858 188.778L138.86 188.967C138.834 189.685 138.975 190.89 139.449 192.528C140.212 195.166 141.637 198.128 143.893 201.36C144.248 201.868 144.105 202.57 143.58 202.899L142.173 203.773C140.351 204.893 138.744 205.834 137.348 206.609L136.834 206.893C136.444 207.106 136.089 207.296 135.767 207.465L134.668 208.02C134.641 208.033 134.617 208.044 134.597 208.053C134.053 208.304 133.409 208.067 133.159 207.523C132.908 206.98 133.145 206.336 133.688 206.085L134.192 205.838L135.085 205.374C135.306 205.256 135.543 205.129 135.794 204.991C137.089 204.283 138.589 203.416 140.297 202.379L141.474 201.655L141.205 201.244C139.474 198.558 138.281 196.035 137.542 193.708L137.367 193.13C136.877 191.437 136.693 190.098 136.689 189.158L136.698 188.8C136.74 188.203 137.259 187.754 137.856 187.796Z" fill="#DD936F"/>
    <path fill-rule="evenodd" clip-rule="evenodd" d="M142.217 442.288C142.217 442.288 200.326 457.698 226.833 439.224C255.645 419.145 220.362 342.737 211.135 322.83C203.214 305.736 185.945 294.661 170.228 292.041C154.764 289.465 142.946 288.548 142.946 288.548L139.55 275.31C139.055 273.382 137.317 272.032 135.327 272.032H88.9986C86.8282 272.032 84.9913 273.629 84.682 275.775L82.8935 288.314C82.8935 288.314 43.8964 286.851 25.4387 303.942C7.76092 320.313 12.8682 357.053 27.6978 391.062C42.5248 425.072 55.0146 452.061 79.8087 454.541C125.645 459.124 197.295 419.217 197.295 419.217C197.295 419.217 209.516 412.671 220.868 414.417C218.248 398.7 209.516 387.35 184.197 393.899L93.8342 412.671" fill="white"/>
    <path fill-rule="evenodd" clip-rule="evenodd" d="M197.73 366.615C197.73 366.615 202.097 381.02 193.039 392.698L194.021 407.758L129.848 442.466C129.848 442.466 199.69 458.568 227.599 442.288C248.531 430.078 242.514 395.349 226.45 360.351C226.45 360.351 213.815 356.524 197.73 366.615Z" fill="#FFC999"/>
    <path fill-rule="evenodd" clip-rule="evenodd" d="M72.0055 370.544L89.9038 409.396L161.489 389.962C182.881 384.285 205.588 392.372 211.263 409.396C200.787 410.706 180.923 415.289 180.923 415.289C180.923 415.289 112.17 458.18 77.4624 456.545C52.5715 455.37 42.8868 426.38 28.0572 392.372C28.0572 392.372 37.083 373.164 72.0055 370.544Z" fill="#FFC999"/>
    <path d="M188.563 329.072C189.045 329.072 189.436 329.463 189.436 329.945L189.422 331.161L189.395 332.366C189.378 332.993 189.355 333.655 189.326 334.347C189.212 337.094 189.022 339.841 188.739 342.464L188.605 343.604L189.012 344.024C191.759 346.932 193.95 350.022 195.618 353.273L196.025 354.089C200.947 364.29 200.625 375.158 197.139 385.415C196.579 387.06 195.98 388.546 195.379 389.848L195.074 390.494L194.564 391.49C194.328 391.91 193.796 392.06 193.375 391.824C192.955 391.588 192.806 391.056 193.041 390.636L193.291 390.163C193.428 389.893 193.598 389.543 193.794 389.118C194.37 387.869 194.947 386.439 195.486 384.854C198.838 374.991 199.147 364.576 194.453 354.847C192.692 351.198 190.25 347.747 187.071 344.527C186.883 344.337 186.793 344.071 186.826 343.806C187.204 340.777 187.447 337.526 187.583 334.274L187.65 332.318L187.689 330.221L187.691 329.945C187.691 329.463 188.081 329.072 188.563 329.072Z" fill="black"/>
    <path d="M124.316 288.095C124.798 288.095 125.189 288.486 125.189 288.968C125.189 289.396 124.88 289.753 124.473 289.826L124.316 289.841H82.6003C82.1183 289.841 81.7276 289.45 81.7276 288.968C81.7276 288.539 82.0363 288.183 82.4434 288.109L82.6003 288.095H124.316Z" fill="black"/>
    <path d="M143.922 288.22C144.062 287.675 144.618 287.347 145.163 287.487C145.654 287.613 145.969 288.076 145.924 288.564L145.896 288.728L132.145 342.205C131.959 342.929 131.099 343.196 130.537 342.76L130.413 342.647L80.4297 289.17C80.0453 288.759 80.0671 288.114 80.4783 287.729C80.8439 287.388 81.3942 287.367 81.7819 287.655L81.919 287.778L130.632 339.898L143.922 288.22Z" fill="black"/>
    <path fill-rule="evenodd" clip-rule="evenodd" d="M145.632 347.906C150.258 355.708 148.171 365.492 140.977 369.76C133.777 374.029 124.192 371.162 119.566 363.362C114.94 355.56 117.024 345.776 124.221 341.508C131.421 337.24 141.003 340.104 145.632 347.906Z" fill="#464646"/>
    <path fill-rule="evenodd" clip-rule="evenodd" d="M147.292 347.868C151.92 355.67 149.833 365.454 142.636 369.72C135.439 373.988 125.854 371.123 121.228 363.321C116.603 355.519 118.687 345.738 125.884 341.47C133.081 337.201 142.666 340.066 147.292 347.868Z" fill="black"/>
    <path fill-rule="evenodd" clip-rule="evenodd" d="M144.356 349.227C147.946 355.283 146.327 362.881 140.738 366.195C135.152 369.508 127.711 367.284 124.12 361.227C120.527 355.168 122.143 347.573 127.732 344.259C133.321 340.943 140.762 343.17 144.356 349.227Z" fill="#C961DE"/>
    <path d="M111.896 242.934C112.182 242.408 112.84 242.213 113.366 242.499C119.295 245.725 125.438 247.345 131.603 247.429C132.202 247.437 132.68 247.929 132.672 248.528C132.664 249.126 132.172 249.605 131.574 249.597C125.055 249.508 118.567 247.796 112.33 244.404C111.805 244.118 111.61 243.459 111.896 242.934Z" fill="#DD936F"/>
    <path fill-rule="evenodd" clip-rule="evenodd" d="M121.414 400.681C121.414 400.681 95.2749 378.781 79.2108 379.929C63.9294 381.021 54.7637 393.463 57.3805 400.447C57.3805 400.447 53.8923 406.56 59.5644 408.524C58.8006 412.999 65.2391 412.671 65.2391 412.671C65.2391 412.671 64.1499 415.508 68.7327 416.162C73.3155 416.818 78.3771 407.429 90.2752 409.36L121.414 400.681Z" fill="#FFC999"/>
    <path d="M78.5564 378.275C71.3984 378.786 63.7168 383.885 58.1982 390.697C55.8821 393.555 54.2863 396.371 53.837 398.433L53.7833 398.71C53.4898 400.437 54.0819 401.673 55.3513 402.078L55.431 402.099L55.3322 402.329C54.9741 403.206 54.801 404.096 54.8916 404.981L54.935 405.293C55.171 406.627 56.029 407.725 57.5117 408.495L57.8425 408.655L57.842 408.729C57.8574 410.861 59.2942 412.213 61.5101 412.821L61.979 412.937C62.4474 413.04 62.9126 413.107 63.3581 413.146L63.4814 413.153L63.4897 413.241C63.5413 413.644 63.6719 414.052 63.9032 414.452C64.57 415.604 65.9257 416.364 68.0053 416.661C69.1633 416.827 70.3088 416.535 71.6674 415.832L72.0817 415.609C72.9249 415.137 76.1422 413.013 76.1803 412.989C80.6691 410.154 84.4699 409.035 89.5271 409.856C89.6752 409.88 89.8267 409.873 89.9719 409.836L122.31 401.48C123.171 401.257 123.412 400.15 122.722 399.589L121.557 398.668L120.372 397.756C119.749 397.282 119.08 396.781 118.369 396.258C114.987 393.767 111.35 391.276 107.597 388.95C103.264 386.265 99.0548 383.975 95.0668 382.201C88.9628 379.485 83.602 378.074 79.1569 378.242L78.5564 378.275ZM94.1857 384.181C98.0749 385.912 102.201 388.156 106.455 390.793C110.155 393.086 113.745 395.545 117.084 398.003L118.642 399.165L119.644 399.928L89.6426 407.681L89.8745 407.717C84.4357 406.834 80.2522 407.97 75.5853 410.807L75.0228 411.156C74.9222 411.22 71.7846 413.291 71.0236 413.717C69.8561 414.37 69.0198 414.616 68.3119 414.515C66.8379 414.305 66.075 413.877 65.7793 413.366C65.6568 413.155 65.6187 412.923 65.6395 412.699L65.6765 412.486C65.9374 411.806 65.4691 411.086 64.762 411.019L64.5609 411.016C63.8459 411.036 62.935 410.964 62.0838 410.731C60.5094 410.299 59.8197 409.54 60.0609 408.133C60.1505 407.61 59.8485 407.099 59.3473 406.926C57.7863 406.385 57.1402 405.66 57.048 404.76C56.9826 404.121 57.1932 403.364 57.6002 402.592C57.8223 402.171 58.0426 401.849 58.1742 401.686C58.8254 400.879 58.0796 399.706 57.0722 399.953L56.6818 400.04C55.8127 400.203 55.7243 399.954 55.9551 398.894C56.3192 397.223 57.7605 394.681 59.8825 392.061C65.0589 385.672 72.2503 380.899 78.711 380.437C82.8474 380.141 88.1001 381.474 94.1857 384.181Z" fill="#DD936F"/>
    <path d="M78.4215 385.838C79.0155 385.764 79.5572 386.185 79.6314 386.779C79.7057 387.373 79.2843 387.915 78.6903 387.989C74.5675 388.505 70.1009 390.857 65.6057 394.469C63.7847 395.932 62.0854 397.502 60.5561 399.071L59.7999 399.863L58.8842 400.87C58.7762 400.993 58.697 401.085 58.6478 401.144C58.2631 401.602 57.5794 401.662 57.1208 401.277C56.6623 400.893 56.6026 400.209 56.9873 399.75L57.5245 399.137C57.9526 398.66 58.4475 398.129 59.0035 397.558C60.5906 395.93 62.3534 394.301 64.248 392.779C69.0279 388.938 73.8228 386.413 78.4215 385.838Z" fill="#DD936F"/>
    <path d="M85.6308 391.69C86.229 391.671 86.7302 392.139 86.7501 392.738C86.7699 393.336 86.3011 393.837 85.7028 393.857C85.3408 393.869 84.9754 393.893 84.6068 393.927C79.491 394.412 73.9301 397.033 68.3158 401.112C66.1032 402.719 64.0365 404.443 62.1747 406.166C61.6865 406.618 61.2391 407.046 60.8358 407.442L59.9201 408.367C59.8919 408.397 59.8677 408.423 59.8475 408.445C59.4394 408.882 58.7536 408.907 58.3157 408.498C57.8778 408.09 57.8537 407.404 58.2618 406.967L58.911 406.299L59.7486 405.476C60.0474 405.188 60.3655 404.887 60.7021 404.575C62.6234 402.797 64.7549 401.019 67.0418 399.358C72.9416 395.072 78.8279 392.297 84.4024 391.769C84.8147 391.73 85.2242 391.704 85.6308 391.69Z" fill="#DD936F"/>
    <path d="M85.5972 398.582C86.1946 398.544 86.7097 398.998 86.7477 399.595C86.7857 400.192 86.3322 400.707 85.7348 400.745C83.8847 400.863 81.5859 401.658 78.9595 403.033C77.1086 404.002 75.1427 405.234 73.1124 406.667C71.2367 407.991 69.41 409.411 67.7074 410.832L66.8588 411.549L65.5314 412.715C65.0904 413.12 64.4048 413.091 64.0001 412.65C63.5953 412.209 63.6247 411.523 64.0657 411.118L64.6727 410.576L65.448 409.903C65.7227 409.668 66.0134 409.422 66.3188 409.167C68.0634 407.712 69.9351 406.256 71.8625 404.896C73.9655 403.412 76.01 402.131 77.9539 401.113C80.8256 399.609 83.39 398.722 85.5972 398.582Z" fill="#DD936F"/>
    <path d="M61.6326 342.177C62.0363 342.034 62.4755 342.205 62.6816 342.564L62.7474 342.707L72.3918 369.814C72.5881 370.366 72.1961 370.95 71.6111 370.978L71.109 371.01C70.6904 371.04 70.2037 371.082 69.6545 371.136C68.0815 371.292 66.3271 371.522 64.437 371.84C59.0383 372.747 53.6411 374.174 48.6127 376.229C39.4153 379.988 32.5221 385.41 28.8371 392.761C28.6211 393.192 28.0966 393.366 27.6658 393.15C27.2349 392.934 27.0607 392.41 27.2767 391.979C31.1774 384.198 38.3976 378.518 47.9523 374.613C53.1119 372.504 58.6305 371.046 64.1477 370.119C65.7564 369.848 67.2698 369.64 68.6617 369.486L69.8941 369.36L70.3628 369.317L61.1029 343.292C60.9593 342.889 61.1307 342.449 61.4895 342.243L61.6326 342.177Z" fill="black"/>
    <path d="M205.816 361.767C212.539 358.864 219.678 357.679 226.728 359.215C227.199 359.318 227.497 359.783 227.395 360.254C227.292 360.725 226.827 361.023 226.356 360.921C219.711 359.472 212.924 360.599 206.508 363.37C205.208 363.931 204.011 364.525 202.932 365.125L202.298 365.485C201.561 365.914 201.049 366.244 200.79 366.427C200.396 366.704 199.851 366.609 199.574 366.215C199.296 365.821 199.391 365.277 199.785 364.999L200.22 364.71C200.564 364.487 200.965 364.241 201.421 363.976C202.717 363.222 204.19 362.47 205.816 361.767Z" fill="black"/>
    <path d="M192.639 390.815C192.875 390.265 193.512 390.01 194.062 390.246C197.91 391.895 201.456 394.54 204.685 397.904C206.657 399.958 208.391 402.156 209.876 404.355C210.266 404.932 210.618 405.48 210.932 405.989L211.475 406.902C211.58 407.083 211.657 407.223 211.707 407.318C212.024 407.912 211.727 408.633 211.115 408.849L210.956 408.892L191.196 412.692L125.971 445.43C125.489 445.671 124.914 445.52 124.608 445.098L124.516 444.947C124.274 444.466 124.425 443.89 124.848 443.584L124.999 443.492L190.358 410.689L190.639 410.593L209.04 407.053L208.774 406.627C208.667 406.458 208.555 406.285 208.439 406.109L208.08 405.568C206.66 403.466 205.001 401.364 203.121 399.405C200.079 396.236 196.761 393.761 193.209 392.238C192.658 392.003 192.403 391.365 192.639 390.815Z" fill="#DD936F"/>
    <path d="M78.0777 472.172C78.2563 471.638 78.8339 471.35 79.3678 471.529L80.4639 471.875L81.4283 472.164C82.1062 472.363 82.8539 472.576 83.6687 472.8C87.1663 473.759 91.1705 474.719 95.6153 475.616C123.813 481.302 153.83 481.73 182.136 473.472C182.676 473.314 183.242 473.625 183.4 474.165C183.558 474.705 183.247 475.271 182.707 475.429C154.04 483.793 123.706 483.36 95.2122 477.614C90.7203 476.708 86.6709 475.737 83.1293 474.766L81.9387 474.433C81.3689 474.272 80.8377 474.116 80.3461 473.969L78.9827 473.547C78.8752 473.513 78.7878 473.484 78.7209 473.462C78.187 473.283 77.8991 472.706 78.0777 472.172Z" fill="#253368"/>
    <path d="M123.62 187.655C124.342 187.655 124.928 188.24 124.928 188.963C124.928 193.99 121.143 198.108 116.415 198.108C111.689 198.108 107.907 193.99 107.907 188.963C107.907 188.24 108.493 187.655 109.215 187.655C109.938 187.655 110.524 188.24 110.524 188.963C110.524 192.592 113.187 195.492 116.415 195.492C119.646 195.492 122.311 192.592 122.311 188.963C122.311 188.24 122.897 187.655 123.62 187.655Z" fill="#253368"/>
    <path d="M156.626 188.554C157.312 188.554 157.867 189.11 157.867 189.795C157.867 194.762 154.467 198.874 150.145 198.874C145.822 198.874 142.422 194.762 142.422 189.795C142.422 189.11 142.978 188.554 143.663 188.554C144.349 188.554 144.904 189.11 144.904 189.795C144.904 193.484 147.308 196.391 150.145 196.391C152.981 196.391 155.385 193.484 155.385 189.795C155.385 189.11 155.941 188.554 156.626 188.554Z" fill="#253368"/>
    <path d="M108.838 173.564C113.832 171.456 119.12 171.668 124.119 173.273C125.555 173.735 126.628 174.201 127.243 174.525C127.882 174.863 128.127 175.654 127.79 176.293C127.452 176.932 126.661 177.177 126.022 176.84L125.693 176.68C125.592 176.633 125.471 176.579 125.333 176.519C124.744 176.263 124.068 176.005 123.318 175.765C118.863 174.334 114.187 174.147 109.855 175.975C109.065 176.309 108.294 176.708 107.545 177.177C106.932 177.56 106.125 177.373 105.742 176.761C105.359 176.148 105.545 175.341 106.158 174.958C107.025 174.415 107.92 173.952 108.838 173.564Z" fill="#253368"/>
    <path fill-rule="evenodd" clip-rule="evenodd" d="M179.358 472.153C202.328 473.683 258.487 618.09 279.672 669.714C277.049 680.192 260.528 698.814 260.528 698.814C260.528 698.814 262.413 707.108 263.573 712.092C244.176 728.428 206.4 737.618 206.4 737.618V744.764C146.159 773.352 64.7493 747.566 64.7493 747.566C64.7493 747.566 63.2164 746.036 64.2384 740.42C36.736 740.42 -22.5449 706.216 -22.5449 706.216L-14.3771 688.861L-38.8806 664.354C-38.8806 664.354 35.9991 536.296 48.7552 508.143C62.9635 476.786 78.6619 470.964 78.6619 470.964C78.6619 470.964 138.596 469.433 179.358 472.153Z" fill="#002AB2"/>
    <path d="M50.0449 552.627C50.2871 552.119 50.8954 551.904 51.4036 552.146C51.861 552.364 52.0814 552.878 51.9443 553.349L51.8853 553.504L-20.2449 704.873L-19.3377 705.524L-18.5684 706.062C-16.6265 707.409 -14.3379 708.91 -11.7175 710.529C-4.22318 715.156 4.42151 719.786 14.0981 724.107C29.633 731.045 46.3122 736.506 63.9212 739.932C64.4738 740.039 64.8346 740.574 64.7271 741.127C64.6196 741.679 64.0845 742.04 63.5319 741.933C45.7633 738.476 28.9375 732.967 13.2668 725.969C3.50419 721.609 -5.21993 716.937 -12.7886 712.263C-15.1456 710.808 -17.2395 709.444 -19.0601 708.199L-19.7299 707.738C-20.1448 707.45 -20.5264 707.182 -20.8744 706.933L-21.8443 706.23C-21.9802 706.129 -22.0806 706.054 -22.145 706.005C-22.4803 705.749 -22.6185 705.318 -22.5089 704.923L-22.4466 704.756L50.0449 552.627Z" fill="black"/>
    <path d="M196.596 539.355C197.068 539.17 197.594 539.361 197.844 539.784L197.917 539.933L265.546 712.741C265.72 713.185 265.562 713.691 265.166 713.958L264.691 714.27C264.306 714.521 263.851 714.811 263.33 715.137L261.997 715.96C260.838 716.667 259.558 717.423 258.166 718.219C252.601 721.403 246.368 724.586 239.615 727.557C228.901 732.27 217.901 735.995 206.869 738.36C206.319 738.478 205.777 738.127 205.659 737.577C205.541 737.026 205.891 736.484 206.442 736.366C217.328 734.033 228.199 730.352 238.794 725.691C245.479 722.751 251.648 719.6 257.154 716.45C259.079 715.348 260.784 714.326 262.248 713.409L263.345 712.711L196.019 540.676C195.834 540.204 196.025 539.678 196.447 539.428L196.596 539.355Z" fill="black"/>
    <path d="M158.47 499.488C159.021 499.373 159.562 499.726 159.677 500.277L163.357 517.992C164.666 524.324 166.059 531.102 167.525 538.264L168.862 544.811C175.221 575.981 181.58 607.777 187.577 638.622L189.069 646.313C190.171 652.008 191.251 657.625 192.308 663.157L194.598 675.193C199.537 701.293 203.846 724.944 207.403 745.613C207.487 746.103 207.206 746.582 206.738 746.747C203.325 747.951 199.862 749.057 196.353 750.065C159.789 760.569 120.799 760.233 84.0865 753.364C78.4572 752.311 73.3821 751.182 68.9436 750.053L67.4521 749.667C66.9762 749.541 66.5219 749.419 66.0895 749.301L64.3111 748.802C63.9007 748.684 63.6045 748.595 63.4264 748.54C62.9825 748.402 62.6952 747.985 62.7081 747.535L62.7293 747.364L97.9719 572.797C98.0833 572.246 98.6209 571.889 99.1727 572C99.6694 572.1 100.008 572.546 99.9898 573.036L99.9702 573.201L64.9121 746.853L66.628 747.335C67.4811 747.568 68.4215 747.816 69.4463 748.077C73.8436 749.196 78.8762 750.315 84.4614 751.36C120.889 758.175 159.576 758.51 195.79 748.106C198.567 747.308 201.313 746.449 204.029 745.527L205.246 745.105L203.932 737.538C200.554 718.24 196.58 696.582 192.099 672.954L191.094 667.671C189.788 660.811 188.444 653.817 187.067 646.7C181.628 618.587 175.86 589.564 170.042 560.845L164.229 532.333L157.682 500.695C157.566 500.144 157.919 499.604 158.47 499.488Z" fill="black"/>
    <path d="M129.365 502.788C129.871 502.816 130.271 503.208 130.325 503.696L130.329 503.861L121.414 672.065C121.384 672.627 120.904 673.059 120.342 673.031C119.836 673.002 119.436 672.611 119.382 672.123L119.378 671.957L128.293 503.754C128.323 503.191 128.803 502.76 129.365 502.788Z" fill="black"/>
    <path d="M99.5154 477.194C99.691 476.659 100.267 476.367 100.802 476.543C101.283 476.701 101.567 477.183 101.491 477.668L101.452 477.83L67.7615 580.44C67.5859 580.975 67.0099 581.266 66.4751 581.091C65.9937 580.933 65.7097 580.45 65.7857 579.965L65.8246 579.804L99.5154 477.194Z" fill="black"/>
</svg>
