<svg width="884" height="808" viewBox="0 0 884 808" fill="none" xmlns="http://www.w3.org/2000/svg">
    <g clip-path="url(#clip0_113_320)">
        <path d="M1114.58 417.338C1114.58 503.317 1052.44 581.316 951.633 637.865C850.85 694.4 711.567 729.391 557.676 729.391C403.786 729.391 264.503 694.4 163.719 637.865C62.9113 581.316 0.776367 503.317 0.776367 417.338C0.776367 331.359 62.9113 253.36 163.719 196.811C264.503 140.276 403.786 105.285 557.676 105.285C711.567 105.285 850.85 140.276 951.633 196.811C1052.44 253.36 1114.58 331.359 1114.58 417.338Z" stroke="url(#paint0_linear_113_320)" stroke-width="1.55273"/>
        <path d="M929.435 518.133C929.435 569.961 892.862 617.082 833.296 651.305C773.76 685.511 691.441 706.7 600.459 706.7C509.476 706.7 427.158 685.511 367.621 651.305C308.056 617.082 271.483 569.961 271.483 518.133C271.483 466.304 308.056 419.183 367.621 384.961C427.158 350.755 509.476 329.565 600.459 329.565C691.441 329.565 773.76 350.755 833.296 384.961C892.862 419.183 929.435 466.304 929.435 518.133Z" fill="url(#paint1_radial_113_320)" stroke="url(#paint2_linear_113_320)" stroke-width="2.07031"/>
        <path d="M614.074 684.733C707.801 684.733 783.781 642.112 783.781 589.536C783.781 536.96 707.801 494.339 614.074 494.339C520.347 494.339 444.367 536.96 444.367 589.536C444.367 642.112 520.347 684.733 614.074 684.733Z" fill="url(#paint3_radial_113_320)" fill-opacity="0.6"/>
        <g filter="url(#filter0_d_113_320)">
            <path fill-rule="evenodd" clip-rule="evenodd" d="M614.072 684.734C732.916 684.734 829.258 632.997 829.258 569.176C829.258 505.355 732.916 453.618 614.072 453.618C495.228 453.618 398.885 505.355 398.885 569.176C398.885 632.997 495.228 684.734 614.072 684.734ZM614.073 684.733C707.799 684.733 783.779 642.112 783.779 589.536C783.779 536.96 707.799 494.338 614.073 494.338C520.346 494.338 444.366 536.96 444.366 589.536C444.366 642.112 520.346 684.733 614.073 684.733Z" fill="url(#paint4_radial_113_320)" fill-opacity="0.6"/>
        </g>
        <g filter="url(#filter1_d_113_320)">
            <path fill-rule="evenodd" clip-rule="evenodd" d="M614.073 695.036C783.829 695.036 921.444 617.84 921.444 522.615C921.444 427.389 783.829 350.194 614.073 350.194C444.316 350.194 306.701 427.389 306.701 522.615C306.701 617.84 444.316 695.036 614.073 695.036ZM614.072 684.732C732.916 684.732 829.258 632.995 829.258 569.174C829.258 505.354 732.916 453.616 614.072 453.616C495.227 453.616 398.885 505.354 398.885 569.174C398.885 632.995 495.227 684.732 614.072 684.732Z" fill="url(#paint5_radial_113_320)"/>
        </g>
        <path fill-rule="evenodd" clip-rule="evenodd" d="M615.028 680.08C691.425 679.792 753.198 644.962 753.198 602.039C753.198 558.937 690.909 523.996 614.073 523.996C537.236 523.996 474.947 558.937 474.947 602.039C474.947 644.964 536.726 679.795 613.128 680.08C552.844 679.795 504.131 652.293 504.131 618.409C504.131 584.348 553.354 556.736 614.074 556.736C674.794 556.736 724.017 584.348 724.017 618.409C724.017 652.292 675.308 679.792 615.028 680.08Z" fill="url(#paint6_radial_113_320)"/>
        <path d="M846.125 559.214C846.125 594.921 820.317 627.381 778.3 650.95C736.303 674.508 678.242 689.1 614.074 689.1C549.906 689.1 491.844 674.508 449.848 650.95C407.83 627.381 382.022 594.921 382.022 559.214C382.022 523.507 407.83 491.047 449.848 467.478C491.844 443.92 549.906 429.328 614.074 429.328C678.242 429.328 736.303 443.92 778.3 467.478C820.317 491.047 846.125 523.507 846.125 559.214Z" stroke="url(#paint7_linear_113_320)" stroke-width="1.29394"/>
        <path d="M348.588 557.576L346.954 555.942L345.32 557.576L346.954 559.21L348.588 557.576Z" fill="#00FFF0"/>
        <path d="M374.827 605.326L371.523 602.022L368.218 605.326L371.523 608.631L374.827 605.326Z" fill="#00FFF0"/>
        <path d="M455.505 603.791L457.041 605.327L455.505 606.863L453.97 605.327L455.505 603.791Z" fill="#00FFF0"/>
        <path d="M422.781 648.134L421.147 646.5L419.513 648.134L421.147 649.768L422.781 648.134Z" fill="#00FFF0"/>
        <path d="M297.629 552.094L295.995 550.46L294.361 552.094L295.995 553.728L297.629 552.094Z" fill="#00FFF0"/>
        <path d="M309.974 474.21L308.34 472.576L306.706 474.21L308.34 475.844L309.974 474.21Z" fill="#00FFF0" fill-opacity="0.5"/>
        <path d="M344.825 519.183L343.683 518.041L342.541 519.183L343.683 520.325L344.825 519.183Z" fill="#00FFF0" fill-opacity="0.5"/>
        <path d="M326.113 512.096L323.982 509.965L321.851 512.096L323.982 514.226L326.113 512.096Z" fill="#00FFF0" fill-opacity="0.5"/>
        <path d="M651.021 736.905C732.385 736.905 798.343 670.947 798.343 589.583C798.343 508.219 732.385 442.261 651.021 442.261C569.657 442.261 503.699 508.219 503.699 589.583C503.699 670.947 569.657 736.905 651.021 736.905Z" fill="url(#paint8_radial_113_320)" fill-opacity="0.5"/>
        <path d="M651.022 807.756C771.542 807.756 869.242 710.056 869.242 589.536C869.242 469.016 771.542 371.316 651.022 371.316C530.502 371.316 432.802 469.016 432.802 589.536C432.802 710.056 530.502 807.756 651.022 807.756Z" fill="url(#paint9_radial_113_320)" fill-opacity="0.6"/>
        <g filter="url(#filter2_d_113_320)">
            <path d="M651.021 730.167C715.155 730.167 767.145 697.597 767.145 657.419C767.145 617.241 715.155 584.67 651.021 584.67C586.887 584.67 534.897 617.241 534.897 657.419C534.897 697.597 586.887 730.167 651.021 730.167Z" fill="url(#paint10_linear_113_320)" fill-opacity="0.5"/>
            <path d="M766.628 657.419C766.628 677.265 753.786 695.311 732.859 708.421C711.939 721.527 683.006 729.65 651.021 729.65C619.036 729.65 590.104 721.527 569.184 708.421C548.257 695.311 535.415 677.265 535.415 657.419C535.415 637.572 548.257 619.527 569.184 606.416C590.104 593.311 619.036 585.188 651.021 585.188C683.006 585.188 711.939 593.311 732.859 606.416C753.786 619.527 766.628 637.572 766.628 657.419Z" stroke="url(#paint11_linear_113_320)" stroke-opacity="0.6" stroke-width="1.03515"/>
        </g>
        <path d="M651.021 736.906C732.385 736.906 798.343 670.948 798.343 589.584C798.343 508.22 732.385 442.262 651.021 442.262C569.657 442.262 503.699 508.22 503.699 589.584C503.699 670.948 569.657 736.906 651.021 736.906Z" fill="url(#paint12_radial_113_320)"/>
        <g filter="url(#filter3_d_113_320)">
            <path d="M651.021 698.203C730.568 698.203 795.053 660.478 795.053 613.942C795.053 567.406 730.568 529.681 651.021 529.681C571.474 529.681 506.989 567.406 506.989 613.942C506.989 660.478 571.474 698.203 651.021 698.203Z" fill="url(#paint13_linear_113_320)" fill-opacity="0.5"/>
        </g>
        <g filter="url(#filter4_d_113_320)">
            <path d="M651.021 643.943C729.759 643.943 793.588 607.09 793.588 561.63C793.588 516.17 729.759 479.317 651.021 479.317C572.284 479.317 508.454 516.17 508.454 561.63C508.454 607.09 572.284 643.943 651.021 643.943Z" fill="url(#paint14_linear_113_320)" fill-opacity="0.5"/>
            <path d="M793.07 561.63C793.07 584.097 777.293 604.535 751.572 619.385C725.865 634.228 690.316 643.425 651.021 643.425C611.727 643.425 576.178 634.228 550.47 619.385C524.749 604.535 508.972 584.097 508.972 561.63C508.972 539.163 524.749 518.725 550.47 503.874C576.178 489.031 611.727 479.835 651.021 479.835C690.316 479.835 725.865 489.031 751.572 503.874C777.293 518.725 793.07 539.163 793.07 561.63Z" stroke="url(#paint15_linear_113_320)" stroke-opacity="0.6" stroke-width="1.03515"/>
        </g>
        <g filter="url(#filter5_d_113_320)">
            <path d="M651.022 540.957C689.051 540.957 719.879 520.062 719.879 494.287C719.879 468.512 689.051 447.617 651.022 447.617C612.993 447.617 582.165 468.512 582.165 494.287C582.165 520.062 612.993 540.957 651.022 540.957Z" fill="url(#paint16_linear_113_320)" fill-opacity="0.5"/>
        </g>
        <path d="M651.02 698.707C711.288 698.707 760.144 649.85 760.144 589.583C760.144 529.315 711.288 480.459 651.02 480.459C590.752 480.459 541.896 529.315 541.896 589.583C541.896 649.85 590.752 698.707 651.02 698.707Z" fill="url(#paint17_radial_113_320)"/>
        <g filter="url(#filter6_d_113_320)">
            <path d="M761.129 519.124C761.129 538.636 748.893 556.37 728.964 569.252C709.039 582.131 681.483 590.113 651.019 590.113C620.555 590.113 592.999 582.131 573.074 569.252C553.145 556.37 540.909 538.636 540.909 519.124C540.909 499.612 553.145 481.878 573.074 468.996C592.999 456.117 620.555 448.135 651.019 448.135C681.483 448.135 709.039 456.117 728.964 468.996C748.893 481.878 761.129 499.612 761.129 519.124Z" stroke="url(#paint18_linear_113_320)" stroke-opacity="0.6" stroke-width="1.03515"/>
        </g>
        <g filter="url(#filter7_d_113_320)">
            <path d="M793.07 561.63C793.07 584.097 777.293 604.535 751.572 619.385C725.865 634.228 690.316 643.425 651.021 643.425C611.727 643.425 576.178 634.228 550.47 619.385C524.749 604.535 508.972 584.097 508.972 561.63C508.972 539.163 524.749 518.725 550.47 503.874C576.178 489.031 611.727 479.835 651.021 479.835C690.316 479.835 725.865 489.031 751.572 503.874C777.293 518.725 793.07 539.163 793.07 561.63Z" stroke="url(#paint19_linear_113_320)" stroke-opacity="0.6" stroke-width="1.03515"/>
        </g>
        <g filter="url(#filter8_d_113_320)">
            <path d="M794.535 613.942C794.535 636.951 778.59 657.876 752.605 673.077C726.633 688.272 690.719 697.686 651.021 697.686C611.323 697.686 575.409 688.272 549.436 673.077C523.452 657.876 507.507 636.951 507.507 613.942C507.507 590.934 523.452 570.009 549.436 554.807C575.409 539.613 611.323 530.199 651.021 530.199C690.719 530.199 726.633 539.613 752.605 554.807C778.59 570.009 794.535 590.934 794.535 613.942Z" stroke="url(#paint20_linear_113_320)" stroke-opacity="0.6" stroke-width="1.03515"/>
        </g>
        <g filter="url(#filter9_d_113_320)">
            <path d="M719.362 494.287C719.362 506.952 711.789 518.478 699.422 526.86C687.057 535.24 669.947 540.44 651.022 540.44C632.098 540.44 614.987 535.24 602.623 526.86C590.256 518.478 582.683 506.952 582.683 494.287C582.683 481.623 590.256 470.097 602.623 461.715C614.987 453.335 632.098 448.135 651.022 448.135C669.947 448.135 687.057 453.335 699.422 461.715C711.789 470.097 719.362 481.623 719.362 494.287Z" stroke="url(#paint21_linear_113_320)" stroke-opacity="0.6" stroke-width="1.03515"/>
        </g>
        <path d="M420.092 577.946C466.267 577.946 503.699 540.514 503.699 494.339C503.699 448.164 466.267 410.732 420.092 410.732C373.917 410.732 336.485 448.164 336.485 494.339C336.485 540.514 373.917 577.946 420.092 577.946Z" fill="url(#paint22_radial_113_320)" fill-opacity="0.6"/>
        <g filter="url(#filter10_d_113_320)">
            <path d="M409.812 550.461C438.827 550.461 462.348 535.726 462.348 517.549C462.348 499.372 438.827 484.637 409.812 484.637C380.797 484.637 357.276 499.372 357.276 517.549C357.276 535.726 380.797 550.461 409.812 550.461Z" fill="url(#paint23_linear_113_320)" fill-opacity="0.5"/>
            <path d="M461.831 517.549C461.831 526.395 456.106 534.481 446.686 540.382C437.273 546.279 424.238 549.943 409.812 549.943C395.387 549.943 382.351 546.279 372.939 540.382C363.519 534.481 357.794 526.395 357.794 517.549C357.794 508.702 363.519 500.616 372.939 494.715C382.351 488.818 395.387 485.154 409.812 485.154C424.238 485.154 437.273 488.818 446.686 494.715C456.106 500.616 461.831 508.702 461.831 517.549Z" stroke="url(#paint24_linear_113_320)" stroke-opacity="0.6" stroke-width="1.03515"/>
        </g>
        <path d="M409.813 553.509C446.623 553.509 476.463 523.669 476.463 486.859C476.463 450.049 446.623 420.209 409.813 420.209C373.003 420.209 343.163 450.049 343.163 486.859C343.163 523.669 373.003 553.509 409.813 553.509Z" fill="url(#paint25_radial_113_320)"/>
        <g filter="url(#filter11_d_113_320)">
            <path d="M409.813 536C445.801 536 474.974 518.933 474.974 497.879C474.974 476.825 445.801 459.758 409.813 459.758C373.825 459.758 344.651 476.825 344.651 497.879C344.651 518.933 373.825 536 409.813 536Z" fill="url(#paint26_linear_113_320)" fill-opacity="0.5"/>
            <path d="M474.457 497.879C474.457 508.146 467.34 517.536 455.628 524.387C443.928 531.232 427.731 535.482 409.813 535.482C391.894 535.482 375.698 531.232 363.998 524.387C352.286 517.536 345.169 508.146 345.169 497.879C345.169 487.612 352.286 478.222 363.998 471.37C375.698 464.526 391.894 460.276 409.813 460.276C427.731 460.276 443.928 464.526 455.628 471.37C467.34 478.222 474.457 487.612 474.457 497.879Z" stroke="url(#paint27_linear_113_320)" stroke-opacity="0.6" stroke-width="1.03515"/>
        </g>
        <path d="M409.814 536.228C437.08 536.228 459.183 514.125 459.183 486.859C459.183 459.593 437.08 437.49 409.814 437.49C382.548 437.49 360.445 459.593 360.445 486.859C360.445 514.125 382.548 536.228 409.814 536.228Z" fill="url(#paint28_radial_113_320)"/>
        <path d="M409.814 536.228C437.08 536.228 459.183 514.125 459.183 486.859C459.183 459.593 437.08 437.49 409.814 437.49C382.548 437.49 360.445 459.593 360.445 486.859C360.445 514.125 382.548 536.228 409.814 536.228Z" fill="url(#paint29_radial_113_320)"/>
        <g filter="url(#filter12_d_113_320)">
            <path d="M409.815 511.452C445.437 511.452 474.314 494.78 474.314 474.213C474.314 453.646 445.437 436.974 409.815 436.974C374.193 436.974 345.316 453.646 345.316 474.213C345.316 494.78 374.193 511.452 409.815 511.452Z" fill="url(#paint30_linear_113_320)" fill-opacity="0.5"/>
            <path d="M473.796 474.213C473.796 484.233 466.757 493.403 455.163 500.097C443.583 506.783 427.551 510.934 409.815 510.934C392.078 510.934 376.046 506.783 364.466 500.097C352.872 493.403 345.833 484.233 345.833 474.213C345.833 464.193 352.872 455.023 364.466 448.329C376.046 441.643 392.078 437.491 409.815 437.491C427.551 437.491 443.583 441.643 455.163 448.329C466.757 455.023 473.796 464.193 473.796 474.213Z" stroke="url(#paint31_linear_113_320)" stroke-opacity="0.6" stroke-width="1.03515"/>
        </g>
        <g filter="url(#filter13_d_113_320)">
            <path d="M409.812 487.333C437.453 487.333 459.861 472.85 459.861 454.983C459.861 437.116 437.453 422.633 409.812 422.633C382.171 422.633 359.763 437.116 359.763 454.983C359.763 472.85 382.171 487.333 409.812 487.333Z" fill="url(#paint32_linear_113_320)" fill-opacity="0.5"/>
            <path d="M459.344 454.983C459.344 463.682 453.888 471.628 444.921 477.424C435.96 483.216 423.548 486.816 409.812 486.816C396.076 486.816 383.665 483.216 374.703 477.424C365.736 471.628 360.281 463.682 360.281 454.983C360.281 446.284 365.736 438.339 374.703 432.543C383.665 426.75 396.076 423.15 409.812 423.15C423.548 423.15 435.96 426.75 444.921 432.543C453.888 438.339 459.344 446.284 459.344 454.983Z" stroke="url(#paint33_linear_113_320)" stroke-opacity="0.6" stroke-width="1.03515"/>
        </g>
        <g filter="url(#filter14_d_113_320)">
            <path d="M409.814 464.861C427.019 464.861 440.966 455.408 440.966 443.747C440.966 432.086 427.019 422.633 409.814 422.633C392.609 422.633 378.662 432.086 378.662 443.747C378.662 455.408 392.609 464.861 409.814 464.861Z" fill="url(#paint34_linear_113_320)" fill-opacity="0.5"/>
            <path d="M440.448 443.747C440.448 449.354 437.095 454.491 431.551 458.248C426.01 462.004 418.327 464.343 409.814 464.343C401.301 464.343 393.617 462.004 388.077 458.248C382.533 454.491 379.18 449.354 379.18 443.747C379.18 438.139 382.533 433.003 388.077 429.245C393.617 425.49 401.301 423.15 409.814 423.15C418.327 423.15 426.01 425.49 431.551 429.245C437.095 433.003 440.448 438.139 440.448 443.747Z" stroke="url(#paint35_linear_113_320)" stroke-opacity="0.6" stroke-width="1.03515"/>
        </g>
        <path d="M409.813 553.509C446.623 553.509 476.463 523.669 476.463 486.859C476.463 450.049 446.623 420.209 409.813 420.209C373.003 420.209 343.163 450.049 343.163 486.859C343.163 523.669 373.003 553.509 409.813 553.509Z" fill="url(#paint36_radial_113_320)" fill-opacity="0.9"/>
        <path d="M241.375 251.659L239.439 249.723L237.503 251.659L239.439 253.595L241.375 251.659Z" fill="#0066FF" fill-opacity="0.5"/>
        <path d="M272.419 308.161L268.509 304.251L264.599 308.161L268.509 312.071L272.419 308.161Z" fill="#0066FF" fill-opacity="0.5"/>
        <path d="M367.884 306.342L369.703 308.161L367.884 309.98L366.064 308.161L367.884 306.342Z" fill="#0066FF" fill-opacity="0.5"/>
        <path d="M329.167 358.815L327.231 356.879L325.295 358.815L327.231 360.751L329.167 358.815Z" fill="#0066FF" fill-opacity="0.5"/>
        <path d="M181.074 245.172L179.138 243.236L177.202 245.172L179.138 247.108L181.074 245.172Z" fill="#0066FF" fill-opacity="0.5"/>
        <path d="M195.682 153.011L193.746 151.075L191.81 153.011L193.746 154.947L195.682 153.011Z" fill="#0500FF" fill-opacity="0.5"/>
        <path d="M236.918 206.225L235.567 204.874L234.216 206.225L235.567 207.577L236.918 206.225Z" fill="#0500FF" fill-opacity="0.5"/>
        <path d="M214.777 197.839L212.256 195.318L209.735 197.839L212.256 200.36L214.777 197.839Z" fill="#0500FF" fill-opacity="0.5"/>
        <path d="M90.0801 565.29L87.3882 562.598L84.6963 565.29L87.3882 567.982L90.0801 565.29Z" fill="#0066FF" fill-opacity="0.5"/>
        <path d="M133.244 643.849L127.807 638.412L122.37 643.849L127.807 649.285L133.244 643.849Z" fill="#0066FF" fill-opacity="0.5"/>
        <path d="M265.976 641.319L268.506 643.849L265.976 646.379L263.447 643.849L265.976 641.319Z" fill="#0066FF" fill-opacity="0.5"/>
        <path d="M212.145 714.28L209.453 711.588L206.761 714.28L209.453 716.972L212.145 714.28Z" fill="#0066FF" fill-opacity="0.5"/>
        <path d="M6.23712 556.27L3.54517 553.578L0.853209 556.27L3.54517 558.962L6.23712 556.27Z" fill="#0066FF" fill-opacity="0.5"/>
        <path d="M26.5479 428.131L23.856 425.439L21.1641 428.131L23.856 430.823L26.5479 428.131Z" fill="#0500FF" fill-opacity="0.5"/>
        <path d="M83.886 502.122L82.0046 500.241L80.1233 502.122L82.0046 504.004L83.886 502.122Z" fill="#0500FF" fill-opacity="0.5"/>
        <path d="M53.0973 490.459L49.5918 486.954L46.0863 490.459L49.5918 493.965L53.0973 490.459Z" fill="#0500FF" fill-opacity="0.5"/>
        <path d="M791.976 380.151L789.24 381.921L791.01 384.657L793.746 382.887L791.976 380.151Z" fill="#0500FF" fill-opacity="0.5"/>
        <path d="M864.183 345.446L862.274 346.681L863.509 348.591L865.419 347.355L864.183 345.446Z" fill="#0500FF" fill-opacity="0.5"/>
        <path d="M848.9 369.117L845.337 371.421L847.642 374.984L851.204 372.679L848.9 369.117Z" fill="#0500FF" fill-opacity="0.5"/>
        <path d="M741.742 251.963L735.255 250.855L734.147 257.342L740.634 258.449L741.742 251.963Z" fill="#0066FF" fill-opacity="0.5"/>
        <path d="M833.198 184.532L836.216 185.047L835.701 188.065L832.682 187.55L833.198 184.532Z" fill="#0066FF" fill-opacity="0.5"/>
        <path d="M831.694 262.121L828.482 261.573L827.933 264.785L831.145 265.333L831.694 262.121Z" fill="#0066FF" fill-opacity="0.5"/>
        <path d="M609.711 253.625L606.499 253.077L605.951 256.289L609.162 256.837L609.711 253.625Z" fill="#0066FF" fill-opacity="0.5"/>
        <path d="M560.505 154.081L557.293 153.533L556.745 156.745L559.956 157.293L560.505 154.081Z" fill="#0500FF" fill-opacity="0.5"/>
        <path d="M637.153 177.393L634.911 177.01L634.528 179.252L636.77 179.635L637.153 177.393Z" fill="#0500FF" fill-opacity="0.5"/>
        <path d="M609.883 184.478L605.701 183.764L604.987 187.947L609.169 188.661L609.883 184.478Z" fill="#0500FF" fill-opacity="0.5"/>
    </g>
    <defs>
        <filter id="filter0_d_113_320" x="396.297" y="445.854" width="445.9" height="246.643" filterUnits="userSpaceOnUse" color-interpolation-filters="sRGB">
            <feFlood flood-opacity="0" result="BackgroundImageFix"/>
            <feColorMatrix in="SourceAlpha" type="matrix" values="0 0 0 0 0 0 0 0 0 0 0 0 0 0 0 0 0 0 127 0" result="hardAlpha"/>
            <feOffset dx="5.17577"/>
            <feGaussianBlur stdDeviation="3.88183"/>
            <feComposite in2="hardAlpha" operator="out"/>
            <feColorMatrix type="matrix" values="0 0 0 0 0.119531 0 0 0 0 0.163828 0 0 0 0 0.5625 0 0 0 0.1 0"/>
            <feBlend mode="normal" in2="BackgroundImageFix" result="effect1_dropShadow_113_320"/>
            <feBlend mode="normal" in="SourceGraphic" in2="effect1_dropShadow_113_320" result="shape"/>
        </filter>
        <filter id="filter1_d_113_320" x="304.113" y="341.913" width="630.27" height="360.369" filterUnits="userSpaceOnUse" color-interpolation-filters="sRGB">
            <feFlood flood-opacity="0" result="BackgroundImageFix"/>
            <feColorMatrix in="SourceAlpha" type="matrix" values="0 0 0 0 0 0 0 0 0 0 0 0 0 0 0 0 0 0 127 0" result="hardAlpha"/>
            <feOffset dx="5.17577" dy="-0.517577"/>
            <feGaussianBlur stdDeviation="3.88183"/>
            <feComposite in2="hardAlpha" operator="out"/>
            <feColorMatrix type="matrix" values="0 0 0 0 0.119531 0 0 0 0 0.163828 0 0 0 0 0.5625 0 0 0 0.1 0"/>
            <feBlend mode="normal" in2="BackgroundImageFix" result="effect1_dropShadow_113_320"/>
            <feBlend mode="normal" in="SourceGraphic" in2="effect1_dropShadow_113_320" result="shape"/>
        </filter>
        <filter id="filter2_d_113_320" x="528.168" y="577.942" width="247.776" height="161.025" filterUnits="userSpaceOnUse" color-interpolation-filters="sRGB">
            <feFlood flood-opacity="0" result="BackgroundImageFix"/>
            <feColorMatrix in="SourceAlpha" type="matrix" values="0 0 0 0 0 0 0 0 0 0 0 0 0 0 0 0 0 0 127 0" result="hardAlpha"/>
            <feOffset dx="1.03515" dy="1.03515"/>
            <feGaussianBlur stdDeviation="3.88183"/>
            <feComposite in2="hardAlpha" operator="out"/>
            <feColorMatrix type="matrix" values="0 0 0 0 0.440043 0 0 0 0 0.20092 0 0 0 0 0.679167 0 0 0 0.2 0"/>
            <feBlend mode="normal" in2="BackgroundImageFix" result="effect1_dropShadow_113_320"/>
            <feBlend mode="normal" in="SourceGraphic" in2="effect1_dropShadow_113_320" result="shape"/>
        </filter>
        <filter id="filter3_d_113_320" x="500.261" y="522.952" width="303.591" height="184.05" filterUnits="userSpaceOnUse" color-interpolation-filters="sRGB">
            <feFlood flood-opacity="0" result="BackgroundImageFix"/>
            <feColorMatrix in="SourceAlpha" type="matrix" values="0 0 0 0 0 0 0 0 0 0 0 0 0 0 0 0 0 0 127 0" result="hardAlpha"/>
            <feOffset dx="1.03515" dy="1.03515"/>
            <feGaussianBlur stdDeviation="3.88183"/>
            <feComposite in2="hardAlpha" operator="out"/>
            <feColorMatrix type="matrix" values="0 0 0 0 0.440043 0 0 0 0 0.20092 0 0 0 0 0.679167 0 0 0 0.2 0"/>
            <feBlend mode="normal" in2="BackgroundImageFix" result="effect1_dropShadow_113_320"/>
            <feBlend mode="normal" in="SourceGraphic" in2="effect1_dropShadow_113_320" result="shape"/>
        </filter>
        <filter id="filter4_d_113_320" x="501.726" y="472.589" width="300.661" height="180.153" filterUnits="userSpaceOnUse" color-interpolation-filters="sRGB">
            <feFlood flood-opacity="0" result="BackgroundImageFix"/>
            <feColorMatrix in="SourceAlpha" type="matrix" values="0 0 0 0 0 0 0 0 0 0 0 0 0 0 0 0 0 0 127 0" result="hardAlpha"/>
            <feOffset dx="1.03515" dy="1.03515"/>
            <feGaussianBlur stdDeviation="3.88183"/>
            <feComposite in2="hardAlpha" operator="out"/>
            <feColorMatrix type="matrix" values="0 0 0 0 0.440043 0 0 0 0 0.20092 0 0 0 0 0.679167 0 0 0 0.2 0"/>
            <feBlend mode="normal" in2="BackgroundImageFix" result="effect1_dropShadow_113_320"/>
            <feBlend mode="normal" in="SourceGraphic" in2="effect1_dropShadow_113_320" result="shape"/>
        </filter>
        <filter id="filter5_d_113_320" x="575.436" y="440.888" width="153.242" height="108.868" filterUnits="userSpaceOnUse" color-interpolation-filters="sRGB">
            <feFlood flood-opacity="0" result="BackgroundImageFix"/>
            <feColorMatrix in="SourceAlpha" type="matrix" values="0 0 0 0 0 0 0 0 0 0 0 0 0 0 0 0 0 0 127 0" result="hardAlpha"/>
            <feOffset dx="1.03515" dy="1.03515"/>
            <feGaussianBlur stdDeviation="3.88183"/>
            <feComposite in2="hardAlpha" operator="out"/>
            <feColorMatrix type="matrix" values="0 0 0 0 0.440043 0 0 0 0 0.20092 0 0 0 0 0.679167 0 0 0 0.2 0"/>
            <feBlend mode="normal" in2="BackgroundImageFix" result="effect1_dropShadow_113_320"/>
            <feBlend mode="normal" in="SourceGraphic" in2="effect1_dropShadow_113_320" result="shape"/>
        </filter>
        <filter id="filter6_d_113_320" x="533.663" y="440.889" width="236.782" height="158.54" filterUnits="userSpaceOnUse" color-interpolation-filters="sRGB">
            <feFlood flood-opacity="0" result="BackgroundImageFix"/>
            <feColorMatrix in="SourceAlpha" type="matrix" values="0 0 0 0 0 0 0 0 0 0 0 0 0 0 0 0 0 0 127 0" result="hardAlpha"/>
            <feOffset dx="1.03515" dy="1.03515"/>
            <feGaussianBlur stdDeviation="3.88183"/>
            <feComposite in2="hardAlpha" operator="out"/>
            <feColorMatrix type="matrix" values="0 0 0 0 0.440043 0 0 0 0 0.20092 0 0 0 0 0.679167 0 0 0 0.2 0"/>
            <feBlend mode="normal" in2="BackgroundImageFix" result="effect1_dropShadow_113_320"/>
            <feBlend mode="normal" in="SourceGraphic" in2="effect1_dropShadow_113_320" result="shape"/>
        </filter>
        <filter id="filter7_d_113_320" x="501.726" y="472.589" width="300.66" height="180.152" filterUnits="userSpaceOnUse" color-interpolation-filters="sRGB">
            <feFlood flood-opacity="0" result="BackgroundImageFix"/>
            <feColorMatrix in="SourceAlpha" type="matrix" values="0 0 0 0 0 0 0 0 0 0 0 0 0 0 0 0 0 0 127 0" result="hardAlpha"/>
            <feOffset dx="1.03515" dy="1.03515"/>
            <feGaussianBlur stdDeviation="3.88183"/>
            <feComposite in2="hardAlpha" operator="out"/>
            <feColorMatrix type="matrix" values="0 0 0 0 0.440043 0 0 0 0 0.20092 0 0 0 0 0.679167 0 0 0 0.2 0"/>
            <feBlend mode="normal" in2="BackgroundImageFix" result="effect1_dropShadow_113_320"/>
            <feBlend mode="normal" in="SourceGraphic" in2="effect1_dropShadow_113_320" result="shape"/>
        </filter>
        <filter id="filter8_d_113_320" x="500.261" y="522.953" width="303.591" height="184.049" filterUnits="userSpaceOnUse" color-interpolation-filters="sRGB">
            <feFlood flood-opacity="0" result="BackgroundImageFix"/>
            <feColorMatrix in="SourceAlpha" type="matrix" values="0 0 0 0 0 0 0 0 0 0 0 0 0 0 0 0 0 0 127 0" result="hardAlpha"/>
            <feOffset dx="1.03515" dy="1.03515"/>
            <feGaussianBlur stdDeviation="3.88183"/>
            <feComposite in2="hardAlpha" operator="out"/>
            <feColorMatrix type="matrix" values="0 0 0 0 0.440043 0 0 0 0 0.20092 0 0 0 0 0.679167 0 0 0 0.2 0"/>
            <feBlend mode="normal" in2="BackgroundImageFix" result="effect1_dropShadow_113_320"/>
            <feBlend mode="normal" in="SourceGraphic" in2="effect1_dropShadow_113_320" result="shape"/>
        </filter>
        <filter id="filter9_d_113_320" x="575.437" y="440.889" width="153.241" height="108.867" filterUnits="userSpaceOnUse" color-interpolation-filters="sRGB">
            <feFlood flood-opacity="0" result="BackgroundImageFix"/>
            <feColorMatrix in="SourceAlpha" type="matrix" values="0 0 0 0 0 0 0 0 0 0 0 0 0 0 0 0 0 0 127 0" result="hardAlpha"/>
            <feOffset dx="1.03515" dy="1.03515"/>
            <feGaussianBlur stdDeviation="3.88183"/>
            <feComposite in2="hardAlpha" operator="out"/>
            <feColorMatrix type="matrix" values="0 0 0 0 0.440043 0 0 0 0 0.20092 0 0 0 0 0.679167 0 0 0 0.2 0"/>
            <feBlend mode="normal" in2="BackgroundImageFix" result="effect1_dropShadow_113_320"/>
            <feBlend mode="normal" in="SourceGraphic" in2="effect1_dropShadow_113_320" result="shape"/>
        </filter>
        <filter id="filter10_d_113_320" x="350.548" y="477.908" width="120.6" height="81.352" filterUnits="userSpaceOnUse" color-interpolation-filters="sRGB">
            <feFlood flood-opacity="0" result="BackgroundImageFix"/>
            <feColorMatrix in="SourceAlpha" type="matrix" values="0 0 0 0 0 0 0 0 0 0 0 0 0 0 0 0 0 0 127 0" result="hardAlpha"/>
            <feOffset dx="1.03515" dy="1.03515"/>
            <feGaussianBlur stdDeviation="3.88183"/>
            <feComposite in2="hardAlpha" operator="out"/>
            <feColorMatrix type="matrix" values="0 0 0 0 0.440043 0 0 0 0 0.20092 0 0 0 0 0.679167 0 0 0 0.2 0"/>
            <feBlend mode="normal" in2="BackgroundImageFix" result="effect1_dropShadow_113_320"/>
            <feBlend mode="normal" in="SourceGraphic" in2="effect1_dropShadow_113_320" result="shape"/>
        </filter>
        <filter id="filter11_d_113_320" x="337.923" y="453.03" width="145.851" height="91.7689" filterUnits="userSpaceOnUse" color-interpolation-filters="sRGB">
            <feFlood flood-opacity="0" result="BackgroundImageFix"/>
            <feColorMatrix in="SourceAlpha" type="matrix" values="0 0 0 0 0 0 0 0 0 0 0 0 0 0 0 0 0 0 127 0" result="hardAlpha"/>
            <feOffset dx="1.03515" dy="1.03515"/>
            <feGaussianBlur stdDeviation="3.88183"/>
            <feComposite in2="hardAlpha" operator="out"/>
            <feColorMatrix type="matrix" values="0 0 0 0 0.440043 0 0 0 0 0.20092 0 0 0 0 0.679167 0 0 0 0.2 0"/>
            <feBlend mode="normal" in2="BackgroundImageFix" result="effect1_dropShadow_113_320"/>
            <feBlend mode="normal" in="SourceGraphic" in2="effect1_dropShadow_113_320" result="shape"/>
        </filter>
        <filter id="filter12_d_113_320" x="338.587" y="430.245" width="144.526" height="90.0061" filterUnits="userSpaceOnUse" color-interpolation-filters="sRGB">
            <feFlood flood-opacity="0" result="BackgroundImageFix"/>
            <feColorMatrix in="SourceAlpha" type="matrix" values="0 0 0 0 0 0 0 0 0 0 0 0 0 0 0 0 0 0 127 0" result="hardAlpha"/>
            <feOffset dx="1.03515" dy="1.03515"/>
            <feGaussianBlur stdDeviation="3.88183"/>
            <feComposite in2="hardAlpha" operator="out"/>
            <feColorMatrix type="matrix" values="0 0 0 0 0.440043 0 0 0 0 0.20092 0 0 0 0 0.679167 0 0 0 0.2 0"/>
            <feBlend mode="normal" in2="BackgroundImageFix" result="effect1_dropShadow_113_320"/>
            <feBlend mode="normal" in="SourceGraphic" in2="effect1_dropShadow_113_320" result="shape"/>
        </filter>
        <filter id="filter13_d_113_320" x="353.034" y="415.904" width="115.626" height="80.2285" filterUnits="userSpaceOnUse" color-interpolation-filters="sRGB">
            <feFlood flood-opacity="0" result="BackgroundImageFix"/>
            <feColorMatrix in="SourceAlpha" type="matrix" values="0 0 0 0 0 0 0 0 0 0 0 0 0 0 0 0 0 0 127 0" result="hardAlpha"/>
            <feOffset dx="1.03515" dy="1.03515"/>
            <feGaussianBlur stdDeviation="3.88183"/>
            <feComposite in2="hardAlpha" operator="out"/>
            <feColorMatrix type="matrix" values="0 0 0 0 0.440043 0 0 0 0 0.20092 0 0 0 0 0.679167 0 0 0 0.2 0"/>
            <feBlend mode="normal" in2="BackgroundImageFix" result="effect1_dropShadow_113_320"/>
            <feBlend mode="normal" in="SourceGraphic" in2="effect1_dropShadow_113_320" result="shape"/>
        </filter>
        <filter id="filter14_d_113_320" x="371.934" y="415.904" width="77.831" height="57.756" filterUnits="userSpaceOnUse" color-interpolation-filters="sRGB">
            <feFlood flood-opacity="0" result="BackgroundImageFix"/>
            <feColorMatrix in="SourceAlpha" type="matrix" values="0 0 0 0 0 0 0 0 0 0 0 0 0 0 0 0 0 0 127 0" result="hardAlpha"/>
            <feOffset dx="1.03515" dy="1.03515"/>
            <feGaussianBlur stdDeviation="3.88183"/>
            <feComposite in2="hardAlpha" operator="out"/>
            <feColorMatrix type="matrix" values="0 0 0 0 0.440043 0 0 0 0 0.20092 0 0 0 0 0.679167 0 0 0 0.2 0"/>
            <feBlend mode="normal" in2="BackgroundImageFix" result="effect1_dropShadow_113_320"/>
            <feBlend mode="normal" in="SourceGraphic" in2="effect1_dropShadow_113_320" result="shape"/>
        </filter>
        <linearGradient id="paint0_linear_113_320" x1="352.496" y1="947.048" x2="498.913" y2="239.7" gradientUnits="userSpaceOnUse">
            <stop stop-color="white"/>
            <stop offset="0.508554" stop-color="#30FFFF"/>
            <stop offset="1" stop-color="white" stop-opacity="0"/>
        </linearGradient>
        <radialGradient id="paint1_radial_113_320" cx="0" cy="0" r="1" gradientUnits="userSpaceOnUse" gradientTransform="translate(281.018 692.733) rotate(-45.6853) scale(355.024 632.713)">
            <stop stop-color="white"/>
            <stop offset="0.462474" stop-color="#3A45AA"/>
            <stop offset="1" stop-color="#3A45AA" stop-opacity="0"/>
        </radialGradient>
        <linearGradient id="paint2_linear_113_320" x1="432.558" y1="700.334" x2="602.648" y2="418.311" gradientUnits="userSpaceOnUse">
            <stop stop-color="white"/>
            <stop offset="0.442828" stop-color="#30FFFF"/>
            <stop offset="1" stop-color="white" stop-opacity="0"/>
        </linearGradient>
        <radialGradient id="paint3_radial_113_320" cx="0" cy="0" r="1" gradientUnits="userSpaceOnUse" gradientTransform="translate(702.41 502.175) rotate(141.315) scale(246.834 440.027)">
            <stop offset="0.39201" stop-color="#1B29A4" stop-opacity="0"/>
            <stop offset="0.841913" stop-color="#2938BB" stop-opacity="0.5"/>
            <stop offset="1" stop-color="#172075" stop-opacity="0.5"/>
        </radialGradient>
        <radialGradient id="paint4_radial_113_320" cx="0" cy="0" r="1" gradientUnits="userSpaceOnUse" gradientTransform="translate(726.082 463.131) rotate(141.571) scale(343.156 606.252)">
            <stop offset="0.39201" stop-color="#6675FF" stop-opacity="0"/>
            <stop offset="0.841913" stop-color="#6675FF" stop-opacity="0.5"/>
            <stop offset="1" stop-color="#192059" stop-opacity="0"/>
        </radialGradient>
        <radialGradient id="paint5_radial_113_320" cx="0" cy="0" r="1" gradientUnits="userSpaceOnUse" gradientTransform="translate(774.067 364.388) rotate(140.348) scale(498.718 889.055)">
            <stop offset="0.39201" stop-color="#6675FF" stop-opacity="0"/>
            <stop offset="0.841913" stop-color="#6675FF" stop-opacity="0.5"/>
            <stop offset="1" stop-color="#DBDEFF" stop-opacity="0"/>
        </radialGradient>
        <radialGradient id="paint6_radial_113_320" cx="0" cy="0" r="1" gradientUnits="userSpaceOnUse" gradientTransform="translate(686.491 530.421) rotate(141.315) scale(202.354 360.732)">
            <stop offset="0.39201" stop-color="#17217A" stop-opacity="0"/>
            <stop offset="0.841913" stop-color="#1A2374" stop-opacity="0.5"/>
            <stop offset="1" stop-color="#151E6C" stop-opacity="0.5"/>
        </radialGradient>
        <linearGradient id="paint7_linear_113_320" x1="495.683" y1="684.651" x2="593.268" y2="424.362" gradientUnits="userSpaceOnUse">
            <stop stop-color="white"/>
            <stop offset="0.508554" stop-color="#30FFFF"/>
            <stop offset="1" stop-color="white" stop-opacity="0"/>
        </linearGradient>
        <radialGradient id="paint8_radial_113_320" cx="0" cy="0" r="1" gradientUnits="userSpaceOnUse" gradientTransform="translate(591.853 755.515) rotate(-64.0757) scale(330.71 330.71)">
            <stop offset="0.107416" stop-color="white" stop-opacity="0.5"/>
            <stop offset="0.328407" stop-color="#8FB5FF" stop-opacity="0.5"/>
            <stop offset="0.629496" stop-color="#220C7A" stop-opacity="0"/>
        </radialGradient>
        <radialGradient id="paint9_radial_113_320" cx="0" cy="0" r="1" gradientUnits="userSpaceOnUse" gradientTransform="translate(651.022 589.536) rotate(90) scale(218.22 218.22)">
            <stop stop-color="#3E5DFF"/>
            <stop offset="1" stop-color="#3E5DFF" stop-opacity="0"/>
        </radialGradient>
        <linearGradient id="paint10_linear_113_320" x1="767.145" y1="641.673" x2="534.97" y2="658.43" gradientUnits="userSpaceOnUse">
            <stop stop-color="#4E53BE" stop-opacity="0.5"/>
            <stop offset="0.885417" stop-color="#33CEFF" stop-opacity="0.7"/>
            <stop offset="1" stop-color="white" stop-opacity="0.5"/>
        </linearGradient>
        <linearGradient id="paint11_linear_113_320" x1="671.318" y1="761.755" x2="685.794" y2="600.783" gradientUnits="userSpaceOnUse">
            <stop stop-color="white"/>
            <stop offset="1" stop-color="white" stop-opacity="0"/>
        </linearGradient>
        <radialGradient id="paint12_radial_113_320" cx="0" cy="0" r="1" gradientUnits="userSpaceOnUse" gradientTransform="translate(503.699 643.176) rotate(-19.6638) scale(312.89)">
            <stop offset="0.249306" stop-color="white"/>
            <stop offset="0.48315" stop-color="#8FF2FF" stop-opacity="0.5"/>
            <stop offset="0.627037" stop-color="#220C7A" stop-opacity="0.1"/>
        </radialGradient>
        <linearGradient id="paint13_linear_113_320" x1="780.245" y1="609.07" x2="507.11" y2="617.741" gradientUnits="userSpaceOnUse">
            <stop stop-color="#4E53BE" stop-opacity="0.1"/>
            <stop offset="1" stop-color="#33CEFF"/>
        </linearGradient>
        <linearGradient id="paint14_linear_113_320" x1="759.122" y1="554.308" x2="508.632" y2="565.576" gradientUnits="userSpaceOnUse">
            <stop stop-color="#4E53BE" stop-opacity="0.1"/>
            <stop offset="0.997187" stop-color="#33CEFF"/>
        </linearGradient>
        <linearGradient id="paint15_linear_113_320" x1="675.939" y1="679.683" x2="691.053" y2="497.328" gradientUnits="userSpaceOnUse">
            <stop stop-color="white"/>
            <stop offset="1" stop-color="white" stop-opacity="0"/>
        </linearGradient>
        <linearGradient id="paint16_linear_113_320" x1="719.88" y1="484.186" x2="582.104" y2="493.377" gradientUnits="userSpaceOnUse">
            <stop stop-color="#4E53BE" stop-opacity="0.1"/>
            <stop offset="1" stop-color="#33CEFF" stop-opacity="0.9"/>
        </linearGradient>
        <radialGradient id="paint17_radial_113_320" cx="0" cy="0" r="1" gradientUnits="userSpaceOnUse" gradientTransform="translate(672.283 795.261) rotate(-83.1976) scale(317.034 317.034)">
            <stop offset="0.338542" stop-color="#68FFF6" stop-opacity="0.1"/>
            <stop offset="0.802083" stop-color="#FFBFE9"/>
            <stop offset="1" stop-color="white"/>
        </radialGradient>
        <linearGradient id="paint18_linear_113_320" x1="663.562" y1="590.631" x2="670.955" y2="460.959" gradientUnits="userSpaceOnUse">
            <stop stop-color="white"/>
            <stop offset="1" stop-color="white" stop-opacity="0"/>
        </linearGradient>
        <linearGradient id="paint19_linear_113_320" x1="658.105" y1="646.102" x2="674.986" y2="492.441" gradientUnits="userSpaceOnUse">
            <stop stop-color="white"/>
            <stop offset="1" stop-color="white" stop-opacity="0"/>
        </linearGradient>
        <linearGradient id="paint20_linear_113_320" x1="661.517" y1="701.019" x2="664.362" y2="539.318" gradientUnits="userSpaceOnUse">
            <stop stop-color="white"/>
            <stop offset="1" stop-color="white" stop-opacity="0"/>
        </linearGradient>
        <linearGradient id="paint21_linear_113_320" x1="663.057" y1="561.222" x2="673.091" y2="458.095" gradientUnits="userSpaceOnUse">
            <stop stop-color="white"/>
            <stop offset="1" stop-color="white" stop-opacity="0"/>
        </linearGradient>
        <radialGradient id="paint22_radial_113_320" cx="0" cy="0" r="1" gradientUnits="userSpaceOnUse" gradientTransform="translate(420.092 494.339) rotate(90) scale(83.6074)">
            <stop stop-color="#FF65C1"/>
            <stop offset="1" stop-color="#FF65C1" stop-opacity="0"/>
        </radialGradient>
        <linearGradient id="paint23_linear_113_320" x1="462.348" y1="510.425" x2="357.31" y2="518.006" gradientUnits="userSpaceOnUse">
            <stop stop-color="#4E53BE" stop-opacity="0.5"/>
            <stop offset="0.885417" stop-color="#FB33FF" stop-opacity="0.5"/>
            <stop offset="1" stop-color="white" stop-opacity="0.5"/>
        </linearGradient>
        <linearGradient id="paint24_linear_113_320" x1="418.995" y1="564.752" x2="425.544" y2="491.926" gradientUnits="userSpaceOnUse">
            <stop stop-color="white"/>
            <stop offset="1" stop-color="white" stop-opacity="0"/>
        </linearGradient>
        <radialGradient id="paint25_radial_113_320" cx="0" cy="0" r="1" gradientUnits="userSpaceOnUse" gradientTransform="translate(343.163 511.104) rotate(-19.6638) scale(141.555 141.555)">
            <stop offset="0.249306" stop-color="white"/>
            <stop offset="0.48315" stop-color="#FF8FED" stop-opacity="0.5"/>
            <stop offset="0.627037" stop-color="#220C7A" stop-opacity="0.5"/>
        </radialGradient>
        <linearGradient id="paint26_linear_113_320" x1="474.974" y1="489.628" x2="344.791" y2="499.689" gradientUnits="userSpaceOnUse">
            <stop stop-color="#4E53BE" stop-opacity="0.5"/>
            <stop offset="0.885417" stop-color="#FB33FF" stop-opacity="0.5"/>
            <stop offset="1" stop-color="white" stop-opacity="0.5"/>
        </linearGradient>
        <linearGradient id="paint27_linear_113_320" x1="421.202" y1="552.552" x2="428.293" y2="468.115" gradientUnits="userSpaceOnUse">
            <stop stop-color="white"/>
            <stop offset="1" stop-color="white" stop-opacity="0"/>
        </linearGradient>
        <radialGradient id="paint28_radial_113_320" cx="0" cy="0" r="1" gradientUnits="userSpaceOnUse" gradientTransform="translate(425.68 536.228) rotate(-107.749) scale(99.169 99.169)">
            <stop offset="0.223958" stop-color="white"/>
            <stop offset="0.466382" stop-color="#FFCEF1"/>
            <stop offset="0.682292" stop-color="#B6B9FF"/>
            <stop offset="0.881791" stop-color="white"/>
        </radialGradient>
        <radialGradient id="paint29_radial_113_320" cx="0" cy="0" r="1" gradientUnits="userSpaceOnUse" gradientTransform="translate(434.207 536.228) rotate(-100.377) scale(135.421 135.421)">
            <stop stop-color="white"/>
            <stop offset="1" stop-color="white" stop-opacity="0"/>
        </radialGradient>
        <linearGradient id="paint30_linear_113_320" x1="474.313" y1="466.153" x2="345.475" y2="476.242" gradientUnits="userSpaceOnUse">
            <stop stop-color="#4E53BE" stop-opacity="0.5"/>
            <stop offset="0.885417" stop-color="#FB33FF" stop-opacity="0.5"/>
            <stop offset="1" stop-color="white" stop-opacity="0.5"/>
        </linearGradient>
        <linearGradient id="paint31_linear_113_320" x1="421.088" y1="527.622" x2="427.925" y2="445.122" gradientUnits="userSpaceOnUse">
            <stop stop-color="white"/>
            <stop offset="1" stop-color="white" stop-opacity="0"/>
        </linearGradient>
        <linearGradient id="paint32_linear_113_320" x1="459.861" y1="447.981" x2="359.763" y2="454.983" gradientUnits="userSpaceOnUse">
            <stop stop-color="#4E53BE" stop-opacity="0.5"/>
            <stop offset="0.885417" stop-color="#FB33FF" stop-opacity="0.5"/>
            <stop offset="1" stop-color="white" stop-opacity="0.5"/>
        </linearGradient>
        <linearGradient id="paint33_linear_113_320" x1="418.56" y1="501.38" x2="425.198" y2="429.835" gradientUnits="userSpaceOnUse">
            <stop stop-color="white"/>
            <stop offset="1" stop-color="white" stop-opacity="0"/>
        </linearGradient>
        <linearGradient id="paint34_linear_113_320" x1="440.966" y1="439.177" x2="378.635" y2="443.335" gradientUnits="userSpaceOnUse">
            <stop stop-color="#4E53BE" stop-opacity="0.5"/>
            <stop offset="0.885417" stop-color="#FB33FF" stop-opacity="0.5"/>
            <stop offset="1" stop-color="white" stop-opacity="0.5"/>
        </linearGradient>
        <linearGradient id="paint35_linear_113_320" x1="415.259" y1="474.029" x2="419.798" y2="427.373" gradientUnits="userSpaceOnUse">
            <stop stop-color="white"/>
            <stop offset="1" stop-color="white" stop-opacity="0"/>
        </linearGradient>
        <radialGradient id="paint36_radial_113_320" cx="0" cy="0" r="1" gradientUnits="userSpaceOnUse" gradientTransform="translate(383.045 561.928) rotate(-65.1363) scale(210.169 210.169)">
            <stop offset="0.249306" stop-color="white"/>
            <stop offset="0.48315" stop-color="#FF8FED" stop-opacity="0.5"/>
            <stop offset="0.627037" stop-color="#220C7A" stop-opacity="0"/>
        </radialGradient>
        <clipPath id="clip0_113_320">
            <rect width="884" height="808" fill="white"/>
        </clipPath>
    </defs>
</svg>
